<svg xmlns="http://www.w3.org/2000/svg" width="46.98305995681403" height="53.69491515834932"><rect id="backgroundrect" width="100%" height="100%" x="0" y="0" fill="none" stroke="none" class="selected" style=""/>
    
<g class="currentLayer" style=""><title>Layer 1</title><g fill="none" fill-rule="evenodd" id="svg_1">
        <path fill="#10A310" d="M.471 3.92C2.635 3.412 11.232 1.484 22.974 0c12.294 1.575 20.421 3.42 22.501 3.917.303.073.5.36.464.669l-4.38 37.07c-.022.183-.124.346-.278.446l-17.715 9.38c-.375.198-.824.198-1.2 0l-17.703-9.38c-.155-.1-.257-.263-.279-.445L.004 4.589c-.037-.31.163-.598.467-.67" id="svg_2"/>
        <g id="svg_3">
            <path fill="#FFF" d="M27.338000228881835,44.772000228881836 c0.10800000000000001,-0.05700000000000001 0.17600000000000002,-0.16900000000000004 0.17700000000000002,-0.29100000000000004 l0.126,-13.82 c0,-0.18800000000000003 -0.015000000000000003,-0.3420000000000001 -0.15300000000000002,-0.47000000000000003 l-8.748,-9.406 c-0.14300000000000002,-0.15400000000000003 -0.22200000000000003,-0.35400000000000004 -0.22000000000000003,-0.5640000000000001 c0.008000000000000002,-1.8960000000000001 0.04800000000000001,-11.55 -0.027000000000000007,-14.561 c-0.005000000000000001,-0.203 -0.18700000000000003,-0.35500000000000004 -0.38600000000000007,-0.32200000000000006 C12.377000228881837,6.2800002288818355 6.152000228881836,7.596000228881836 4.894000228881836,7.892000228881836 c-0.24800000000000003,0.05800000000000001 -0.41000000000000003,0.29300000000000004 -0.38000000000000006,0.546 L6.370000228881836,24.183000228881838 l8.598,7.385 c0.07400000000000001,0.06300000000000001 0.11700000000000002,0.15600000000000003 0.11700000000000002,0.254 v2.6270000000000002 c0,0.15800000000000003 -0.16500000000000004,0.262 -0.30700000000000005,0.19500000000000003 L7.180000228881836,31.059000228881835 l0.9,7.627 c0.017000000000000005,0.14900000000000002 0.1,0.28200000000000003 0.22600000000000003,0.36200000000000004 l14.415,7.654 c0.30600000000000005,0.16300000000000003 0.6720000000000002,0.16300000000000003 0.978,0 l3.638,-1.9300000000000002 z" id="svg_4"/>
            <path fill="#F5F5F5" d="M41.53000022888184,7.726000228881836 C39.99600022888183,7.360000228881836 26.748000228881835,5.1340002288818365 24.288000228881835,4.712000228881836 c-0.20600000000000002,-0.036000000000000004 -0.39200000000000007,0.12200000000000001 -0.39200000000000007,0.32900000000000007 v14.484 c0,0.19900000000000004 0.07200000000000001,0.39100000000000007 0.20400000000000001,0.541 l7.819,8.895 c0.05400000000000001,0.06600000000000002 0.08000000000000002,0.15000000000000002 0.07400000000000001,0.23500000000000001 l-0.16000000000000003,12.296 c-0.003000000000000001,0.25 0.266,0.41400000000000003 0.49000000000000005,0.29600000000000004 l5.777,-3.038 c0.126,-0.08000000000000002 0.21000000000000002,-0.21300000000000002 0.22700000000000004,-0.36100000000000004 l1.46,-12.27 c0.025000000000000005,-0.21000000000000002 -0.05200000000000001,-0.41900000000000004 -0.20700000000000002,-0.5630000000000001 l-7.367,-6.871 c-0.134,-0.125 -0.21000000000000002,-0.30000000000000004 -0.21000000000000002,-0.48300000000000004 v-1.6540000000000001 c0,-0.14600000000000002 0.15400000000000003,-0.24300000000000002 0.28700000000000003,-0.18000000000000002 l7.73,1.613 c0.38600000000000007,0.08000000000000002 0.7580000000000001,-0.18500000000000003 0.804,-0.5740000000000001 L41.910000228881835,8.269000228881836 c0.030000000000000006,-0.251 -0.132,-0.48500000000000004 -0.38000000000000006,-0.543 " id="svg_5"/>
        </g>
        <g fill="#FFF" id="svg_6">
            <path d="M70.94,17.097 c-0.40700000000000003,-0.514 -0.9580000000000001,-0.8950000000000001 -1.6540000000000001,-1.1400000000000001 c-0.6960000000000002,-0.24600000000000002 -1.354,-0.37000000000000005 -1.974,-0.37000000000000005 c-0.36500000000000005,0 -0.7380000000000001,0.04400000000000001 -1.125,0.129 c-0.38500000000000006,0.08600000000000002 -0.7490000000000001,0.22000000000000003 -1.092,0.401 c-0.3410000000000001,0.18300000000000002 -0.6200000000000001,0.42300000000000004 -0.8340000000000001,0.7230000000000001 c-0.21400000000000002,0.30000000000000004 -0.32000000000000006,0.6630000000000001 -0.32000000000000006,1.092 c0,0.6840000000000002 0.256,1.21 0.77,1.573 c0.513,0.36400000000000005 1.161,0.6740000000000002 1.943,0.93 c0.78,0.258 1.62,0.515 2.52,0.771 c0.8990000000000001,0.258 1.738,0.6220000000000001 2.52,1.093 c0.782,0.47000000000000003 1.4300000000000002,1.102 1.944,1.8940000000000001 c0.513,0.792 0.77,1.852 0.77,3.18 c0,1.262 -0.23700000000000002,2.364 -0.7070000000000001,3.306 c-0.47100000000000003,0.9420000000000001 -1.107,1.723 -1.9100000000000001,2.3440000000000003 c-0.803,0.6210000000000001 -1.734,1.08 -2.794,1.3800000000000001 c-1.06,0.30000000000000004 -2.178,0.45 -3.355,0.45 c-1.477,0 -2.847,-0.22400000000000003 -4.11,-0.6740000000000002 c-1.263,-0.45 -2.44,-1.177 -3.532,-2.184 l3.564,-3.916 c0.514,0.6840000000000002 1.1600000000000001,1.214 1.9420000000000002,1.589 s1.59,0.561 2.425,0.561 c0.406,0 0.8190000000000001,-0.04800000000000001 1.236,-0.14400000000000002 c0.41700000000000004,-0.09700000000000003 0.792,-0.24000000000000002 1.124,-0.43400000000000005 c0.33100000000000007,-0.19100000000000003 0.5990000000000001,-0.43800000000000006 0.803,-0.7380000000000001 c0.203,-0.30000000000000004 0.30500000000000005,-0.6520000000000001 0.30500000000000005,-1.06 c0,-0.6840000000000002 -0.264,-1.225 -0.787,-1.62 c-0.525,-0.3970000000000001 -1.183,-0.7330000000000001 -1.974,-1.013 c-0.793,-0.277 -1.649,-0.556 -2.5700000000000003,-0.8340000000000001 c-0.92,-0.278 -1.7770000000000001,-0.6530000000000001 -2.568,-1.124 c-0.792,-0.47200000000000003 -1.451,-1.093 -1.975,-1.863 C59,20.628999999999998 58.738,19.612000000000002 58.738,18.349 c0,-1.22 0.24100000000000002,-2.29 0.7230000000000001,-3.211 c0.48200000000000004,-0.92 1.123,-1.6910000000000003 1.927,-2.3120000000000003 c0.802,-0.6200000000000001 1.727,-1.086 2.777,-1.397 C65.213,11.120000000000001 66.294,10.963000000000001 67.408,10.963000000000001 c1.284,0 2.525,0.18200000000000002 3.725,0.546 c1.198,0.36500000000000005 2.2800000000000002,0.975 3.243,1.83 L70.94,17.098 zM90.944,34.275 h-4.623 v-2.12 h-0.06500000000000002 c-0.171,0.30000000000000004 -0.39100000000000007,0.6000000000000001 -0.6600000000000001,0.9 c-0.267,0.30000000000000004 -0.5930000000000001,0.5680000000000001 -0.977,0.803 c-0.38500000000000006,0.23600000000000002 -0.8240000000000001,0.42900000000000005 -1.318,0.5790000000000001 c-0.49100000000000005,0.14800000000000002 -1.027,0.22400000000000003 -1.605,0.22400000000000003 c-1.22,0 -2.21,-0.18800000000000003 -2.9699999999999998,-0.562 c-0.7600000000000001,-0.37400000000000005 -1.348,-0.8940000000000001 -1.7650000000000001,-1.557 c-0.41800000000000004,-0.6630000000000001 -0.6960000000000002,-1.445 -0.8350000000000001,-2.345 c-0.14,-0.8980000000000001 -0.21000000000000002,-1.872 -0.21000000000000002,-2.92 V18.67 h4.817 v7.642 c0,0.45 0.015000000000000003,0.915 0.04800000000000001,1.397 c0.03200000000000001,0.48100000000000004 0.129,0.926 0.29000000000000004,1.3330000000000002 c0.16000000000000003,0.40700000000000003 0.406,0.7380000000000001 0.7380000000000001,0.995 c0.33000000000000007,0.257 0.808,0.38500000000000006 1.429,0.38500000000000006 c0.6200000000000001,0 1.124,-0.11200000000000002 1.509,-0.3370000000000001 c0.38500000000000006,-0.22500000000000003 0.6790000000000002,-0.524 0.8820000000000001,-0.9 c0.203,-0.37400000000000005 0.3380000000000001,-0.795 0.402,-1.267 c0.06400000000000002,-0.47000000000000003 0.09600000000000003,-0.9640000000000001 0.09600000000000003,-1.477 V18.67 h4.817 v15.604 zM97.622,26.473 c0,1.177 0.3380000000000001,2.13 1.012,2.858 c0.6750000000000002,0.7280000000000001 1.621,1.09 2.842,1.09 c1.22,0 2.167,-0.36200000000000004 2.842,-1.09 c0.6740000000000002,-0.7290000000000001 1.01,-1.681 1.01,-2.858 c0,-1.178 -0.3360000000000001,-2.13 -1.01,-2.858 c-0.6750000000000002,-0.7270000000000001 -1.622,-1.092 -2.842,-1.092 c-1.221,0 -2.167,0.36500000000000005 -2.842,1.092 c-0.6740000000000002,0.7280000000000001 -1.012,1.6800000000000002 -1.012,2.858 zM93.19,18.67 h4.43 v2.055 h0.06600000000000002 c0.19300000000000003,-0.279 0.44400000000000006,-0.562 0.7540000000000001,-0.8500000000000001 c0.31000000000000005,-0.29000000000000004 0.6750000000000002,-0.552 1.092,-0.787 c0.41800000000000004,-0.23500000000000001 0.8720000000000001,-0.42900000000000005 1.364,-0.5790000000000001 c0.49300000000000005,-0.15000000000000002 1.017,-0.22400000000000003 1.573,-0.22400000000000003 c1.157,0 2.205,0.19800000000000004 3.148,0.5940000000000001 c0.9410000000000001,0.3960000000000001 1.75,0.9520000000000001 2.424,1.6700000000000002 c0.6750000000000002,0.7160000000000001 1.193,1.5670000000000002 1.557,2.552 c0.36400000000000005,0.985 0.546,2.066 0.546,3.243 c0,1.091 -0.16600000000000004,2.136 -0.49800000000000005,3.1310000000000002 c-0.3320000000000001,0.995 -0.802,1.879 -1.412,2.649 c-0.6100000000000001,0.77 -1.355,1.3860000000000001 -2.232,1.846 c-0.8780000000000001,0.46 -1.8730000000000002,0.6900000000000002 -2.987,0.6900000000000002 c-1.006,0 -1.9420000000000002,-0.15600000000000003 -2.809,-0.465 c-0.8670000000000001,-0.31000000000000005 -1.5790000000000002,-0.8400000000000001 -2.135,-1.59 h-0.06300000000000001 v8.991 H93.19 V18.67 zM122.057,24.706 c0.021000000000000005,-0.8130000000000001 -0.24600000000000002,-1.509 -0.803,-2.087 c-0.556,-0.5780000000000001 -1.2730000000000001,-0.8670000000000001 -2.15,-0.8670000000000001 c-0.536,0 -1.007,0.08600000000000002 -1.413,0.258 c-0.40700000000000003,0.171 -0.7550000000000001,0.39000000000000007 -1.044,0.6570000000000001 c-0.28900000000000003,0.268 -0.514,0.5790000000000001 -0.6740000000000002,0.932 c-0.16000000000000003,0.35300000000000004 -0.252,0.7220000000000001 -0.273,1.107 h6.357 zm4.078,6.872 c-0.77,0.986 -1.745,1.745 -2.9210000000000003,2.2800000000000002 c-1.178,0.535 -2.398,0.803 -3.661,0.803 c-1.2,0 -2.327,-0.19300000000000003 -3.387,-0.5800000000000001 c-1.06,-0.38400000000000006 -1.98,-0.934 -2.762,-1.6510000000000002 c-0.781,-0.7180000000000001 -1.397,-1.58 -1.847,-2.585 c-0.44800000000000006,-1.008 -0.6740000000000002,-2.13 -0.6740000000000002,-3.372 c0,-1.241 0.22600000000000003,-2.365 0.6740000000000002,-3.371 c0.45,-1.007 1.066,-1.8690000000000002 1.847,-2.5860000000000003 c0.781,-0.7170000000000001 1.702,-1.267 2.762,-1.6540000000000001 c1.06,-0.38500000000000006 2.188,-0.5770000000000001 3.387,-0.5770000000000001 c1.113,0 2.124,0.19200000000000003 3.035,0.5770000000000001 c0.909,0.38700000000000007 1.6800000000000002,0.937 2.31,1.6540000000000001 c0.6330000000000001,0.7170000000000001 1.12,1.58 1.462,2.5860000000000003 c0.3430000000000001,1.006 0.515,2.13 0.515,3.37 v1.51 H115.7 c0.19200000000000003,0.92 0.6100000000000001,1.653 1.252,2.2 c0.6430000000000001,0.546 1.4340000000000002,0.8190000000000001 2.376,0.8190000000000001 c0.792,0 1.46,-0.17800000000000002 2.007,-0.53 c0.545,-0.35300000000000004 1.022,-0.808 1.429,-1.366 l3.371,2.473 zM128.19,18.67 h4.817 v2.505 h0.06400000000000002 c0.514,-0.9640000000000001 1.123,-1.6860000000000002 1.83,-2.167 c0.7060000000000001,-0.48300000000000004 1.594,-0.7230000000000001 2.665,-0.7230000000000001 c0.279,0 0.557,0.011000000000000003 0.8350000000000001,0.031000000000000007 c0.279,0.022000000000000006 0.535,0.06600000000000002 0.77,0.129 v4.4 c-0.3420000000000001,-0.10700000000000001 -0.6790000000000002,-0.18700000000000003 -1.01,-0.24200000000000002 c-0.3330000000000001,-0.05200000000000001 -0.6810000000000002,-0.08000000000000002 -1.045,-0.08000000000000002 c-0.92,0 -1.6470000000000002,0.128 -2.183,0.38500000000000006 c-0.535,0.257 -0.9480000000000001,0.6160000000000001 -1.236,1.076 c-0.28800000000000003,0.461 -0.47600000000000003,1.011 -0.562,1.6540000000000001 c-0.08600000000000002,0.6420000000000001 -0.128,1.35 -0.128,2.119 v6.518 H128.19 V18.67 zM140.232,18.67 h4.623 v2.119 h0.06500000000000002 c0.14800000000000002,-0.29900000000000004 0.36300000000000004,-0.5990000000000001 0.6410000000000001,-0.8990000000000001 c0.28,-0.30000000000000004 0.6110000000000001,-0.5670000000000001 0.996,-0.802 c0.38500000000000006,-0.23500000000000001 0.8240000000000001,-0.42900000000000005 1.316,-0.5790000000000001 c0.49300000000000005,-0.15000000000000002 1.028,-0.22400000000000003 1.6070000000000002,-0.22400000000000003 c1.091,0 2.06,0.22400000000000003 2.904,0.6740000000000002 c0.8460000000000001,0.45 1.483,1.1560000000000001 1.912,2.12 c0.556,-1.007 1.23,-1.723 2.022,-2.152 c0.792,-0.42800000000000005 1.7670000000000001,-0.6420000000000001 2.922,-0.6420000000000001 c1.048,0 1.932,0.17600000000000002 2.6500000000000004,0.529 c0.7160000000000001,0.35400000000000004 1.283,0.8350000000000001 1.7000000000000002,1.4460000000000002 c0.41800000000000004,0.6090000000000001 0.7180000000000001,1.328 0.9,2.151 c0.18200000000000002,0.8230000000000001 0.273,1.707 0.273,2.649 v9.215 h-4.817 V25.189999999999998 c0,-0.7290000000000001 -0.15500000000000003,-1.355 -0.465,-1.879 c-0.31000000000000005,-0.524 -0.8610000000000001,-0.787 -1.653,-0.787 c-0.558,0 -1.023,0.09200000000000003 -1.397,0.273 c-0.37500000000000006,0.18200000000000002 -0.6750000000000002,0.43400000000000005 -0.8990000000000001,0.7550000000000001 c-0.22600000000000003,0.32000000000000006 -0.38600000000000007,0.6960000000000002 -0.48200000000000004,1.123 c-0.09700000000000003,0.43000000000000005 -0.14400000000000002,0.8780000000000001 -0.14400000000000002,1.35 v8.251 H150.09 v-8.252 c0,-0.278 -0.012000000000000002,-0.6200000000000001 -0.03200000000000001,-1.028 c-0.021000000000000005,-0.406 -0.09700000000000003,-0.792 -0.22500000000000003,-1.1560000000000001 c-0.129,-0.36400000000000005 -0.3380000000000001,-0.6740000000000002 -0.6260000000000001,-0.93 c-0.29000000000000004,-0.258 -0.7120000000000001,-0.38600000000000007 -1.2690000000000001,-0.38600000000000007 c-0.6200000000000001,0 -1.123,0.11300000000000002 -1.508,0.3370000000000001 c-0.38500000000000006,0.22500000000000003 -0.6800000000000002,0.525 -0.8830000000000001,0.9 c-0.20400000000000001,0.37400000000000005 -0.3380000000000001,0.798 -0.402,1.267 c-0.06400000000000002,0.47200000000000003 -0.09600000000000003,0.9640000000000001 -0.09600000000000003,1.478 v7.77 h-4.816 V18.67 zM166.625,34.275 h4.817 V18.67 h-4.817 v15.605 zm-0.38400000000000006,-20.518 c0,-0.77 0.273,-1.429 0.8190000000000001,-1.975 c0.546,-0.545 1.203,-0.8190000000000001 1.975,-0.8190000000000001 c0.77,0 1.428,0.274 1.974,0.8200000000000001 c0.545,0.545 0.8200000000000001,1.204 0.8200000000000001,1.974 c0,0.771 -0.275,1.429 -0.8200000000000001,1.975 c-0.546,0.547 -1.205,0.8190000000000001 -1.974,0.8190000000000001 c-0.772,0 -1.4300000000000002,-0.272 -1.975,-0.8200000000000001 c-0.546,-0.545 -0.8200000000000001,-1.203 -0.8200000000000001,-1.974 zM173.369,34.275 L178.185,34.275 L178.185,10 L173.369,10 zM190.74,24.706 c0.021000000000000005,-0.8130000000000001 -0.24700000000000003,-1.509 -0.803,-2.087 c-0.557,-0.5780000000000001 -1.274,-0.8670000000000001 -2.15,-0.8670000000000001 c-0.537,0 -1.007,0.08600000000000002 -1.4140000000000001,0.258 c-0.406,0.171 -0.7540000000000001,0.39000000000000007 -1.044,0.6570000000000001 c-0.29000000000000004,0.268 -0.513,0.5790000000000001 -0.6740000000000002,0.932 c-0.16000000000000003,0.35300000000000004 -0.252,0.7220000000000001 -0.273,1.107 h6.358 zm4.078,6.872 c-0.77,0.986 -1.745,1.745 -2.922,2.2800000000000002 c-1.178,0.535 -2.398,0.803 -3.66,0.803 c-1.2,0 -2.329,-0.19300000000000003 -3.388,-0.5800000000000001 c-1.06,-0.38400000000000006 -1.98,-0.934 -2.762,-1.6510000000000002 c-0.78,-0.7180000000000001 -1.3960000000000001,-1.58 -1.846,-2.585 c-0.45,-1.008 -0.6740000000000002,-2.13 -0.6740000000000002,-3.372 c0,-1.241 0.22500000000000003,-2.365 0.6740000000000002,-3.371 c0.45,-1.007 1.065,-1.8690000000000002 1.846,-2.5860000000000003 c0.781,-0.7170000000000001 1.702,-1.267 2.762,-1.6540000000000001 c1.06,-0.38500000000000006 2.188,-0.5770000000000001 3.388,-0.5770000000000001 c1.112,0 2.124,0.19200000000000003 3.033,0.5770000000000001 c0.91,0.38700000000000007 1.681,0.937 2.3120000000000003,1.6540000000000001 c0.6330000000000001,0.7170000000000001 1.12,1.58 1.461,2.5860000000000003 c0.3440000000000001,1.006 0.515,2.13 0.515,3.37 v1.51 h-11.175 c0.19300000000000003,0.92 0.6100000000000001,1.653 1.252,2.2 c0.6430000000000001,0.546 1.435,0.8190000000000001 2.376,0.8190000000000001 c0.793,0 1.462,-0.17800000000000002 2.007,-0.53 c0.546,-0.35300000000000004 1.023,-0.808 1.4300000000000002,-1.366 l3.371,2.473 zM196.873,18.67 h4.816 v2.505 h0.06400000000000002 c0.514,-0.9640000000000001 1.123,-1.6860000000000002 1.83,-2.167 c0.7070000000000001,-0.48300000000000004 1.5950000000000002,-0.7230000000000001 2.665,-0.7230000000000001 c0.28,0 0.557,0.011000000000000003 0.8360000000000001,0.031000000000000007 c0.278,0.022000000000000006 0.535,0.06600000000000002 0.77,0.129 v4.4 c-0.3420000000000001,-0.10700000000000001 -0.6790000000000002,-0.18700000000000003 -1.011,-0.24200000000000002 c-0.3320000000000001,-0.05200000000000001 -0.6800000000000002,-0.08000000000000002 -1.044,-0.08000000000000002 c-0.92,0 -1.649,0.128 -2.184,0.38500000000000006 c-0.535,0.257 -0.9470000000000001,0.6160000000000001 -1.236,1.076 c-0.28800000000000003,0.461 -0.47600000000000003,1.011 -0.562,1.6540000000000001 c-0.08600000000000002,0.6420000000000001 -0.128,1.35 -0.128,2.119 v6.518 h-4.816 V18.67 z" id="svg_7"/>
        </g>
    </g></g></svg>